<?xml version="1.0" encoding="UTF-8"?>
<!DOCTYPE svg PUBLIC "-//W3C//DTD SVG 1.1//EN" "http://www.w3.org/Graphics/SVG/1.1/DTD/svg11.dtd">
<!-- Creator: CorelDRAW X7 -->
<svg xmlns="http://www.w3.org/2000/svg" xml:space="preserve" width="14.0546mm" height="14.0546mm" version="1.1" style="shape-rendering:geometricPrecision; text-rendering:geometricPrecision; image-rendering:optimizeQuality; fill-rule:evenodd; clip-rule:evenodd"
viewBox="0 0 1405 1405"
 xmlns:xlink="http://www.w3.org/1999/xlink">
 <defs>
  <style type="text/css">
   <![CDATA[
    .fil0 {fill:#FEFEFE}
   ]]>
  </style>
 </defs>
 <g id="Camada_x0020_1">
  <metadata id="CorelCorpID_0Corel-Layer"/>
  <path class="fil0" d="M703 119c322,0 584,261 584,584 0,322 -262,584 -584,584 -323,0 -584,-262 -584,-584 0,-323 261,-584 584,-584zm291 769c0,0 14,-25 -49,-53 -6,-3 -21,-8 -41,-18 -3,1 -6,2 -9,4 -4,2 -8,4 -12,7 -4,2 -8,6 -12,9 -3,4 -7,8 -10,12 -1,2 -2,4 -4,7 -1,2 -2,4 -3,7 -1,2 -2,4 -3,7 0,2 -1,5 -2,7 0,2 -1,5 -1,7 0,2 -1,5 -1,7 0,5 -1,9 0,13 0,2 0,4 0,6 0,1 0,3 0,5 0,1 0,2 0,4 60,-19 129,-10 87,21 0,0 63,-1 75,-24 12,-23 -15,-28 -15,-28zm-133 -109c0,0 -55,-213 57,-514 0,0 -111,-30 -145,266 0,0 -51,-97 -51,-243 0,0 -84,37 -41,243 0,0 -54,-45 -101,-134 0,0 -129,85 281,382zm-15 131c-1,-2 -1,-4 -1,-6 0,-4 0,-9 0,-13 0,-2 1,-5 1,-7 0,-3 1,-5 1,-8 0,-2 1,-5 2,-7 0,-3 1,-5 2,-8 1,-2 2,-5 3,-7 1,-2 2,-5 4,-7 3,-5 6,-9 10,-13 4,-4 7,-8 12,-11 4,-3 8,-5 12,-8 1,0 3,-1 4,-1 -92,-45 -288,-165 -483,-486 0,0 -91,97 149,315 0,0 -102,-35 -158,-153 0,0 -68,102 137,286 0,0 -58,-2 -110,-77 0,0 -14,257 437,442 0,0 -101,-75 -93,-159 4,-31 36,-52 72,-63 0,-1 -1,-3 -1,-4 0,-2 0,-4 0,-5zm114 -35l0 0c-2,-16 16,6 16,6 -14,6 -16,-6 -16,-6z"/>
 </g>
</svg>
